# xmcd
#
# Track frame offsets:
#	150
#	9893
#	19542
#	27508
#	43871
#	56112
#	63642
#	76479
#	84330
#	96976
#	103431
#	111407
#
# Disc length: 1737 seconds
#
# Revision: 0
# Processed by: cddbd v1.4PL0 Copyright (c) Steve Scherf et al.
# Submitted via: dBpowerAMP V4.0
#
DISCID=9e06c70c
DTITLE=Merle Travis - Very Best
DYEAR=2002
DGENRE=Country
TTITLE0=16 Tons
TTITLE1=Detour
TTITLE2=Texas Tornado
TTITLE3=Nobody
TTITLE4=John Henry
TTITLE5=I'll See You in My Dreams
TTITLE6=Homny Grits
TTITLE7=Guitar Bag
TTITLE8=Gambler's Guitar
TTITLE9=Bye, Bye Blues
TTITLE10=Follow Through
TTITLE11=Medley: No Vacancy/Smoke, Smoke, Smoke/I'll See You in My Dreams/16 Tons
EXTD=
EXTT0=
EXTT1=
EXTT2=
EXTT3=
EXTT4=
EXTT5=
EXTT6=
EXTT7=
EXTT8=
EXTT9=
EXTT10=
EXTT11=
PLAYORDER=
